<svg xmlns="http://www.w3.org/2000/svg" viewBox="0 0 800 1500" style="width: 800px; height: 1500px;" id="line_base">
            <rect x="1" y="1" width="798" height="1498" stroke="black" stroke-width="2" fill-opacity="0"></rect>
            <g stroke="#888888" stroke-width="2" id="edge">
                <g>
                    <line x1="5" y1="15" x2="15" y2="15"></line>
                    <line x1="5" y1="30" x2="15" y2="30"></line>
                    <line x1="5" y1="45" x2="15" y2="45"></line>
                    <line x1="5" y1="60" x2="15" y2="60"></line>
                    <line x1="795" y1="15" x2="785" y2="15"></line>
                    <line x1="795" y1="30" x2="785" y2="30"></line>
                    <line x1="795" y1="45" x2="785" y2="45"></line>
                    <line x1="795" y1="60" x2="785" y2="60"></line>
                </g>
                <g>
                    <line x1="5" y1="90" x2="15" y2="90"></line>
                    <line x1="5" y1="105" x2="15" y2="105"></line>
                    <line x1="5" y1="120" x2="15" y2="120"></line>
                    <line x1="5" y1="135" x2="15" y2="135"></line>
                    <line x1="795" y1="90" x2="785" y2="90"></line>
                    <line x1="795" y1="105" x2="785" y2="105"></line>
                    <line x1="795" y1="120" x2="785" y2="120"></line>
                    <line x1="795" y1="135" x2="785" y2="135"></line>
                </g>
                <g>
                    <line x1="5" y1="165" x2="15" y2="165"></line>
                    <line x1="5" y1="180" x2="15" y2="180"></line>
                    <line x1="5" y1="195" x2="15" y2="195"></line>
                    <line x1="5" y1="210" x2="15" y2="210"></line>
                    <line x1="795" y1="165" x2="785" y2="165"></line>
                    <line x1="795" y1="180" x2="785" y2="180"></line>
                    <line x1="795" y1="195" x2="785" y2="195"></line>
                    <line x1="795" y1="210" x2="785" y2="210"></line>
                </g>
            <g><line x1="5" x2="15" y1="240" y2="240"></line><line x1="795" x2="785" y1="240" y2="240"></line><line x1="5" x2="15" y1="255" y2="255"></line><line x1="795" x2="785" y1="255" y2="255"></line><line x1="5" x2="15" y1="270" y2="270"></line><line x1="795" x2="785" y1="270" y2="270"></line><line x1="5" x2="15" y1="285" y2="285"></line><line x1="795" x2="785" y1="285" y2="285"></line></g><g><line x1="5" x2="15" y1="315" y2="315"></line><line x1="795" x2="785" y1="315" y2="315"></line><line x1="5" x2="15" y1="330" y2="330"></line><line x1="795" x2="785" y1="330" y2="330"></line><line x1="5" x2="15" y1="345" y2="345"></line><line x1="795" x2="785" y1="345" y2="345"></line><line x1="5" x2="15" y1="360" y2="360"></line><line x1="795" x2="785" y1="360" y2="360"></line></g><g><line x1="5" x2="15" y1="390" y2="390"></line><line x1="795" x2="785" y1="390" y2="390"></line><line x1="5" x2="15" y1="405" y2="405"></line><line x1="795" x2="785" y1="405" y2="405"></line><line x1="5" x2="15" y1="420" y2="420"></line><line x1="795" x2="785" y1="420" y2="420"></line><line x1="5" x2="15" y1="435" y2="435"></line><line x1="795" x2="785" y1="435" y2="435"></line></g><g><line x1="5" x2="15" y1="465" y2="465"></line><line x1="795" x2="785" y1="465" y2="465"></line><line x1="5" x2="15" y1="480" y2="480"></line><line x1="795" x2="785" y1="480" y2="480"></line><line x1="5" x2="15" y1="495" y2="495"></line><line x1="795" x2="785" y1="495" y2="495"></line><line x1="5" x2="15" y1="510" y2="510"></line><line x1="795" x2="785" y1="510" y2="510"></line></g><g><line x1="5" x2="15" y1="540" y2="540"></line><line x1="795" x2="785" y1="540" y2="540"></line><line x1="5" x2="15" y1="555" y2="555"></line><line x1="795" x2="785" y1="555" y2="555"></line><line x1="5" x2="15" y1="570" y2="570"></line><line x1="795" x2="785" y1="570" y2="570"></line><line x1="5" x2="15" y1="585" y2="585"></line><line x1="795" x2="785" y1="585" y2="585"></line></g><g><line x1="5" x2="15" y1="615" y2="615"></line><line x1="795" x2="785" y1="615" y2="615"></line><line x1="5" x2="15" y1="630" y2="630"></line><line x1="795" x2="785" y1="630" y2="630"></line><line x1="5" x2="15" y1="645" y2="645"></line><line x1="795" x2="785" y1="645" y2="645"></line><line x1="5" x2="15" y1="660" y2="660"></line><line x1="795" x2="785" y1="660" y2="660"></line></g><g><line x1="5" x2="15" y1="690" y2="690"></line><line x1="795" x2="785" y1="690" y2="690"></line><line x1="5" x2="15" y1="705" y2="705"></line><line x1="795" x2="785" y1="705" y2="705"></line><line x1="5" x2="15" y1="720" y2="720"></line><line x1="795" x2="785" y1="720" y2="720"></line><line x1="5" x2="15" y1="735" y2="735"></line><line x1="795" x2="785" y1="735" y2="735"></line></g><g><line x1="5" x2="15" y1="765" y2="765"></line><line x1="795" x2="785" y1="765" y2="765"></line><line x1="5" x2="15" y1="780" y2="780"></line><line x1="795" x2="785" y1="780" y2="780"></line><line x1="5" x2="15" y1="795" y2="795"></line><line x1="795" x2="785" y1="795" y2="795"></line><line x1="5" x2="15" y1="810" y2="810"></line><line x1="795" x2="785" y1="810" y2="810"></line></g><g><line x1="5" x2="15" y1="840" y2="840"></line><line x1="795" x2="785" y1="840" y2="840"></line><line x1="5" x2="15" y1="855" y2="855"></line><line x1="795" x2="785" y1="855" y2="855"></line><line x1="5" x2="15" y1="870" y2="870"></line><line x1="795" x2="785" y1="870" y2="870"></line><line x1="5" x2="15" y1="885" y2="885"></line><line x1="795" x2="785" y1="885" y2="885"></line></g><g><line x1="5" x2="15" y1="915" y2="915"></line><line x1="795" x2="785" y1="915" y2="915"></line><line x1="5" x2="15" y1="930" y2="930"></line><line x1="795" x2="785" y1="930" y2="930"></line><line x1="5" x2="15" y1="945" y2="945"></line><line x1="795" x2="785" y1="945" y2="945"></line><line x1="5" x2="15" y1="960" y2="960"></line><line x1="795" x2="785" y1="960" y2="960"></line></g><g><line x1="5" x2="15" y1="990" y2="990"></line><line x1="795" x2="785" y1="990" y2="990"></line><line x1="5" x2="15" y1="1005" y2="1005"></line><line x1="795" x2="785" y1="1005" y2="1005"></line><line x1="5" x2="15" y1="1020" y2="1020"></line><line x1="795" x2="785" y1="1020" y2="1020"></line><line x1="5" x2="15" y1="1035" y2="1035"></line><line x1="795" x2="785" y1="1035" y2="1035"></line></g><g><line x1="5" x2="15" y1="1065" y2="1065"></line><line x1="795" x2="785" y1="1065" y2="1065"></line><line x1="5" x2="15" y1="1080" y2="1080"></line><line x1="795" x2="785" y1="1080" y2="1080"></line><line x1="5" x2="15" y1="1095" y2="1095"></line><line x1="795" x2="785" y1="1095" y2="1095"></line><line x1="5" x2="15" y1="1110" y2="1110"></line><line x1="795" x2="785" y1="1110" y2="1110"></line></g><g><line x1="5" x2="15" y1="1140" y2="1140"></line><line x1="795" x2="785" y1="1140" y2="1140"></line><line x1="5" x2="15" y1="1155" y2="1155"></line><line x1="795" x2="785" y1="1155" y2="1155"></line><line x1="5" x2="15" y1="1170" y2="1170"></line><line x1="795" x2="785" y1="1170" y2="1170"></line><line x1="5" x2="15" y1="1185" y2="1185"></line><line x1="795" x2="785" y1="1185" y2="1185"></line></g><g><line x1="5" x2="15" y1="1215" y2="1215"></line><line x1="795" x2="785" y1="1215" y2="1215"></line><line x1="5" x2="15" y1="1230" y2="1230"></line><line x1="795" x2="785" y1="1230" y2="1230"></line><line x1="5" x2="15" y1="1245" y2="1245"></line><line x1="795" x2="785" y1="1245" y2="1245"></line><line x1="5" x2="15" y1="1260" y2="1260"></line><line x1="795" x2="785" y1="1260" y2="1260"></line></g><g><line x1="5" x2="15" y1="1290" y2="1290"></line><line x1="795" x2="785" y1="1290" y2="1290"></line><line x1="5" x2="15" y1="1305" y2="1305"></line><line x1="795" x2="785" y1="1305" y2="1305"></line><line x1="5" x2="15" y1="1320" y2="1320"></line><line x1="795" x2="785" y1="1320" y2="1320"></line><line x1="5" x2="15" y1="1335" y2="1335"></line><line x1="795" x2="785" y1="1335" y2="1335"></line></g><g><line x1="5" x2="15" y1="1365" y2="1365"></line><line x1="795" x2="785" y1="1365" y2="1365"></line><line x1="5" x2="15" y1="1380" y2="1380"></line><line x1="795" x2="785" y1="1380" y2="1380"></line><line x1="5" x2="15" y1="1395" y2="1395"></line><line x1="795" x2="785" y1="1395" y2="1395"></line><line x1="5" x2="15" y1="1410" y2="1410"></line><line x1="795" x2="785" y1="1410" y2="1410"></line></g><g><line x1="5" x2="15" y1="1440" y2="1440"></line><line x1="795" x2="785" y1="1440" y2="1440"></line><line x1="5" x2="15" y1="1455" y2="1455"></line><line x1="795" x2="785" y1="1455" y2="1455"></line><line x1="5" x2="15" y1="1470" y2="1470"></line><line x1="795" x2="785" y1="1470" y2="1470"></line><line x1="5" x2="15" y1="1485" y2="1485"></line><line x1="795" x2="785" y1="1485" y2="1485"></line></g></g>
            <g stroke="#888888" stroke-width="2" id="hash"><line x1="355" x2="355" y1="71" y2="79"></line><line x1="445" x2="445" y1="71" y2="79"></line><line x1="355" x2="355" y1="146" y2="154"></line><line x1="445" x2="445" y1="146" y2="154"></line><line x1="355" x2="355" y1="221" y2="229"></line><line x1="445" x2="445" y1="221" y2="229"></line><line x1="355" x2="355" y1="296" y2="304"></line><line x1="445" x2="445" y1="296" y2="304"></line><line x1="355" x2="355" y1="371" y2="379"></line><line x1="445" x2="445" y1="371" y2="379"></line><line x1="355" x2="355" y1="446" y2="454"></line><line x1="445" x2="445" y1="446" y2="454"></line><line x1="355" x2="355" y1="521" y2="529"></line><line x1="445" x2="445" y1="521" y2="529"></line><line x1="355" x2="355" y1="596" y2="604"></line><line x1="445" x2="445" y1="596" y2="604"></line><line x1="355" x2="355" y1="671" y2="679"></line><line x1="445" x2="445" y1="671" y2="679"></line><line x1="355" x2="355" y1="746" y2="754"></line><line x1="445" x2="445" y1="746" y2="754"></line><line x1="355" x2="355" y1="821" y2="829"></line><line x1="445" x2="445" y1="821" y2="829"></line><line x1="355" x2="355" y1="896" y2="904"></line><line x1="445" x2="445" y1="896" y2="904"></line><line x1="355" x2="355" y1="971" y2="979"></line><line x1="445" x2="445" y1="971" y2="979"></line><line x1="355" x2="355" y1="1046" y2="1054"></line><line x1="445" x2="445" y1="1046" y2="1054"></line><line x1="355" x2="355" y1="1121" y2="1129"></line><line x1="445" x2="445" y1="1121" y2="1129"></line><line x1="355" x2="355" y1="1196" y2="1204"></line><line x1="445" x2="445" y1="1196" y2="1204"></line><line x1="355" x2="355" y1="1271" y2="1279"></line><line x1="445" x2="445" y1="1271" y2="1279"></line><line x1="355" x2="355" y1="1346" y2="1354"></line><line x1="445" x2="445" y1="1346" y2="1354"></line><line x1="355" x2="355" y1="1421" y2="1429"></line><line x1="445" x2="445" y1="1421" y2="1429"></line></g>
            <g stroke="#888888" stroke-width="2" id="yard_lines">
                <line x1="5" y1="75" x2="795" y2="75"></line>
                <line x1="5" y1="150" x2="795" y2="150"></line>
                <line x1="5" y1="225" x2="795" y2="225"></line>
                <line x1="5" y1="300" x2="795" y2="300"></line>
                <line x1="5" y1="375" x2="795" y2="375"></line>
                <line x1="5" y1="450" x2="795" y2="450"></line>
                <line x1="5" y1="520" x2="795" y2="520"></line>
                <line x1="5" y1="600" x2="795" y2="600"></line>
                <line x1="5" y1="675" x2="795" y2="675"></line>
                <line x1="5" y1="750" x2="795" y2="750"></line>
                <line x1="5" y1="825" x2="795" y2="825"></line>
                <line x1="5" y1="900" x2="795" y2="900"></line>
                <line x1="5" y1="975" x2="795" y2="975"></line>
                <line x1="5" y1="1050" x2="795" y2="1050"></line>
                <line x1="5" y1="1125" x2="795" y2="1125"></line>
                <line x1="5" y1="1200" x2="795" y2="1200"></line>
                <line x1="5" y1="1275" x2="795" y2="1275"></line>
                <line x1="5" y1="1350" x2="795" y2="1350"></line>
                <line x1="5" y1="1425" x2="795" y2="1425"></line>
            </g>
        </svg>